<svg xmlns="http://www.w3.org/2000/svg" viewBox="0 0 840 480" role="img" aria-labelledby="title desc">
  <title id="title">Rafting team on a mountain river</title>
  <desc id="desc">A colorful illustration of rafters moving through white water between forested mountains.</desc>
  <defs>
    <linearGradient id="sky" x1="0" y1="0" x2="0" y2="1">
      <stop offset="0" stop-color="#bfe8f4"/>
      <stop offset="1" stop-color="#eef7f9"/>
    </linearGradient>
    <linearGradient id="river" x1="0" y1="0" x2="0" y2="1">
      <stop offset="0" stop-color="#59c1d8"/>
      <stop offset="1" stop-color="#0b5d7a"/>
    </linearGradient>
  </defs>
  <rect width="840" height="480" fill="url(#sky)"/>
  <circle cx="708" cy="75" r="42" fill="#f2b134" opacity="0.9"/>
  <path d="M0 210 120 75l95 110L330 44l145 171L600 92l140 118 100-88v168H0z" fill="#527b67"/>
  <path d="M0 246 125 112l90 104 114-139 142 167 126-114 137 113 106-86v157H0z" fill="#2f5a47"/>
  <g fill="#17324d" opacity="0.55">
    <path d="M35 205 55 155l20 50zM92 189l18-51 20 51zM552 204l22-59 22 59zM628 182l19-55 20 55zM770 203l18-52 20 52z"/>
  </g>
  <path d="M290 172c88 34 189 27 270 54 86 29 151 100 280 156v98H0v-86c104-53 205-70 288-117 55-31 69-79 2-105z" fill="url(#river)"/>
  <g fill="none" stroke="#fff" stroke-width="9" stroke-linecap="round" opacity="0.9">
    <path d="M29 398c90-39 153-28 226-62"/>
    <path d="M180 438c95-50 198-43 297-105"/>
    <path d="M449 394c80-39 155-30 261 22"/>
    <path d="M552 300c71 20 128 58 210 81"/>
  </g>
  <g transform="translate(333 270)">
    <path d="M0 72c17-43 144-43 176 0-23 46-145 49-176 0z" fill="#f25f3a" stroke="#17324d" stroke-width="6"/>
    <path d="M20 71c34-17 101-20 137 0" fill="none" stroke="#ffd36a" stroke-width="8"/>
    <g stroke="#17324d" stroke-width="5" stroke-linecap="round">
      <path d="M42 33 24 83"/>
      <path d="M83 28 70 82"/>
      <path d="M124 34 140 82"/>
    </g>
    <g>
      <circle cx="44" cy="25" r="12" fill="#f3c9a6"/>
      <path d="M32 25c1-18 25-19 27 0z" fill="#f2b134"/>
      <path d="M30 39h28l-2 29H33z" fill="#0b5d7a"/>
      <circle cx="84" cy="20" r="12" fill="#d99b73"/>
      <path d="M72 20c1-18 25-19 27 0z" fill="#e84b3c"/>
      <path d="M70 34h28l-2 31H73z" fill="#f2b134"/>
      <circle cx="125" cy="26" r="12" fill="#f3c9a6"/>
      <path d="M113 26c1-18 25-19 27 0z" fill="#2aa7c8"/>
      <path d="M111 40h28l-2 29h-23z" fill="#17324d"/>
    </g>
    <g stroke="#6b4a2c" stroke-width="5" stroke-linecap="round">
      <path d="M34 47 6 5"/>
      <path d="M92 42 108 0"/>
      <path d="M134 45 170 13"/>
    </g>
  </g>
  <g fill="#fff" opacity="0.95">
    <circle cx="347" cy="369" r="13"/><circle cx="374" cy="382" r="9"/><circle cx="502" cy="366" r="12"/><circle cx="531" cy="381" r="8"/>
  </g>
</svg>
